REM DIRINDEX 1\5,1\2\6,1\2\7,1\3\8,1\3\9,1\4\10,1\4\11,1\4\12
REM DIRNAME folder01,folder02,folder03,folder04,folder05,folder06,folder07,folder08,folder09,folder10,folder11,folder12
TITLE ""
FILE "EJE_DB3000_5th_4B_35.mp3" MP3
  TRACK 01 AUDIO
    TITLE "0:"
    INDEX 01 00:00:00
  TRACK 02 AUDIO
    TITLE "10:cjc026_09531"
    INDEX 01 00:00:05
  TRACK 03 AUDIO
    TITLE "0:"
    INDEX 01 00:00:74
  TRACK 04 AUDIO
    TITLE "11:cjc026_09532"
    INDEX 01 00:01:22
  TRACK 05 AUDIO
    TITLE "0:"
    INDEX 01 00:02:22
  TRACK 06 AUDIO
    TITLE "12:cjc026_09533"
    INDEX 01 00:02:49
  TRACK 07 AUDIO
    TITLE "0:"
    INDEX 01 00:03:41
  TRACK 08 AUDIO
    TITLE "10:cjc026_09534"
    INDEX 01 00:03:66
  TRACK 09 AUDIO
    TITLE "0:"
    INDEX 01 00:04:70
  TRACK 10 AUDIO
    TITLE "11:cjc026_09535"
    INDEX 01 00:05:20
  TRACK 11 AUDIO
    TITLE "0:"
    INDEX 01 00:06:10
  TRACK 12 AUDIO
    TITLE "12:cjc026_09536"
    INDEX 01 00:06:37
  TRACK 13 AUDIO
    TITLE "0:"
    INDEX 01 00:07:41
  TRACK 14 AUDIO
    TITLE "10:cjc026_09537"
    INDEX 01 00:07:66
  TRACK 15 AUDIO
    TITLE "0:"
    INDEX 01 00:08:62
  TRACK 16 AUDIO
    TITLE "11:cjc026_09538"
    INDEX 01 00:09:12
  TRACK 17 AUDIO
    TITLE "0:"
    INDEX 01 00:10:10
  TRACK 18 AUDIO
    TITLE "12:cjc026_09539"
    INDEX 01 00:10:35
  TRACK 19 AUDIO
    TITLE "0:"
    INDEX 01 00:11:31
  TRACK 20 AUDIO
    TITLE "10:cjc026_09540"
    INDEX 01 00:11:56
  TRACK 21 AUDIO
    TITLE "0:"
    INDEX 01 00:12:54
  TRACK 22 AUDIO
    TITLE "11:cjc026_09541"
    INDEX 01 00:13:04
  TRACK 23 AUDIO
    TITLE "0:"
    INDEX 01 00:14:04
  TRACK 24 AUDIO
    TITLE "12:cjc026_09542"
    INDEX 01 00:14:31
  TRACK 25 AUDIO
    TITLE "0:"
    INDEX 01 00:15:27
  TRACK 26 AUDIO
    TITLE "10:cjc026_09543"
    INDEX 01 00:15:52
  TRACK 27 AUDIO
    TITLE "0:"
    INDEX 01 00:16:42
  TRACK 28 AUDIO
    TITLE "11:cjc026_09544"
    INDEX 01 00:16:69
  TRACK 29 AUDIO
    TITLE "0:"
    INDEX 01 00:17:70
  TRACK 30 AUDIO
    TITLE "12:cjc026_09545"
    INDEX 01 00:18:19
  TRACK 31 AUDIO
    TITLE "0:"
    INDEX 01 00:19:11
  TRACK 32 AUDIO
    TITLE "10:cjc026_09546"
    INDEX 01 00:19:36
  TRACK 33 AUDIO
    TITLE "0:"
    INDEX 01 00:20:26
  TRACK 34 AUDIO
    TITLE "11:cjc026_09547"
    INDEX 01 00:20:53
  TRACK 35 AUDIO
    TITLE "0:"
    INDEX 01 00:21:58
  TRACK 36 AUDIO
    TITLE "12:cjc026_09548"
    INDEX 01 00:22:11
  TRACK 37 AUDIO
    TITLE "0:"
    INDEX 01 00:23:03
  TRACK 38 AUDIO
    TITLE "10:cjc026_09549"
    INDEX 01 00:23:28
  TRACK 39 AUDIO
    TITLE "0:"
    INDEX 01 00:24:14
  TRACK 40 AUDIO
    TITLE "11:cjc026_09550"
    INDEX 01 00:24:41
  TRACK 41 AUDIO
    TITLE "0:"
    INDEX 01 00:25:39
  TRACK 42 AUDIO
    TITLE "12:cjc026_09551"
    INDEX 01 00:25:66
  TRACK 43 AUDIO
    TITLE "0:"
    INDEX 01 00:26:52
  TRACK 44 AUDIO
    TITLE "10:cjc026_09552"
    INDEX 01 00:27:04
  TRACK 45 AUDIO
    TITLE "0:"
    INDEX 01 00:28:15
  TRACK 46 AUDIO
    TITLE "11:cjc026_09553"
    INDEX 01 00:28:41
  TRACK 47 AUDIO
    TITLE "0:"
    INDEX 01 00:29:42
  TRACK 48 AUDIO
    TITLE "12:cjc026_09554"
    INDEX 01 00:29:70
  TRACK 49 AUDIO
    TITLE "0:"
    INDEX 01 00:31:06
  TRACK 50 AUDIO
    TITLE "10:cjc026_09555"
    INDEX 01 00:31:31
  TRACK 51 AUDIO
    TITLE "0:"
    INDEX 01 00:32:27
  TRACK 52 AUDIO
    TITLE "11:cjc026_09556"
    INDEX 01 00:32:54
  TRACK 53 AUDIO
    TITLE "0:"
    INDEX 01 00:34:00
  TRACK 54 AUDIO
    TITLE "12:cjc026_09557"
    INDEX 01 00:34:26
  TRACK 55 AUDIO
    TITLE "0:"
    INDEX 01 00:35:21
  TRACK 56 AUDIO
    TITLE "10:cjc026_09558"
    INDEX 01 00:35:49
  TRACK 57 AUDIO
    TITLE "0:"
    INDEX 01 00:36:48
  TRACK 58 AUDIO
    TITLE "11:cjc026_09559"
    INDEX 01 00:36:74
  TRACK 59 AUDIO
    TITLE "0:"
    INDEX 01 00:38:30
  TRACK 60 AUDIO
    TITLE "12:cjc026_09560"
    INDEX 01 00:38:57
  TRACK 61 AUDIO
    TITLE "0:"
    INDEX 01 00:39:56
  TRACK 62 AUDIO
    TITLE "10:cjc026_09561"
    INDEX 01 00:40:05
  TRACK 63 AUDIO
    TITLE "0:"
    INDEX 01 00:41:00
  TRACK 64 AUDIO
    TITLE "11:cjc026_09562"
    INDEX 01 00:41:26
  TRACK 65 AUDIO
    TITLE "0:"
    INDEX 01 00:42:19
  TRACK 66 AUDIO
    TITLE "12:cjc026_09563"
    INDEX 01 00:42:45
  TRACK 67 AUDIO
    TITLE "0:"
    INDEX 01 00:43:39
  TRACK 68 AUDIO
    TITLE "10:cjc026_09564"
    INDEX 01 00:43:66
  TRACK 69 AUDIO
    TITLE "0:"
    INDEX 01 00:44:56
  TRACK 70 AUDIO
    TITLE "11:cjc026_09565"
    INDEX 01 00:45:08
  TRACK 71 AUDIO
    TITLE "0:"
    INDEX 01 00:46:23
  TRACK 72 AUDIO
    TITLE "12:cjc026_09566"
    INDEX 01 00:46:51
  TRACK 73 AUDIO
    TITLE "0:"
    INDEX 01 00:47:40
